<svg xmlns="http://www.w3.org/2000/svg" width="1024" height="1024" viewBox="0 0 1024 1024"><rect width="1024" height="1024" fill="#fff4ec"/><g fill="#ff7a45"><circle cx="404.9" cy="488.7" r="4.18"/><circle cx="395.6" cy="498.0" r="4.08"/><circle cx="404.9" cy="498.0" r="4.11"/><circle cx="414.3" cy="498.0" r="4.13"/><circle cx="423.6" cy="498.0" r="4.15"/><circle cx="395.6" cy="507.3" r="4.02"/><circle cx="404.9" cy="507.3" r="4.04"/><circle cx="414.3" cy="507.3" r="4.06"/><circle cx="423.6" cy="507.3" r="4.09"/><circle cx="395.6" cy="516.7" r="3.96"/><circle cx="404.9" cy="516.7" r="3.98"/><circle cx="414.3" cy="516.7" r="4.00"/><circle cx="386.3" cy="526.0" r="3.91"/><circle cx="395.6" cy="526.0" r="3.93"/><circle cx="404.9" cy="526.0" r="3.94"/><circle cx="414.3" cy="526.0" r="3.96"/><circle cx="386.3" cy="535.3" r="3.88"/><circle cx="395.6" cy="535.3" r="3.89"/><circle cx="404.9" cy="535.3" r="3.91"/><circle cx="414.3" cy="535.3" r="3.93"/><circle cx="386.3" cy="544.6" r="3.84"/><circle cx="395.6" cy="544.6" r="3.86"/><circle cx="404.9" cy="544.6" r="3.88"/><circle cx="377.0" cy="553.9" r="3.75"/><circle cx="386.3" cy="553.9" r="3.79"/><circle cx="395.6" cy="553.9" r="3.83"/><circle cx="404.9" cy="553.9" r="3.85"/><circle cx="377.0" cy="563.2" r="3.70"/><circle cx="386.3" cy="563.2" r="3.75"/><circle cx="395.6" cy="563.2" r="3.79"/><circle cx="404.9" cy="563.2" r="3.82"/><circle cx="377.0" cy="572.5" r="3.67"/><circle cx="386.3" cy="572.5" r="3.71"/><circle cx="395.6" cy="572.5" r="3.75"/><circle cx="367.7" cy="581.8" r="3.60"/><circle cx="377.0" cy="581.8" r="3.64"/><circle cx="386.3" cy="581.8" r="3.69"/><circle cx="395.6" cy="581.8" r="3.73"/><circle cx="367.7" cy="591.1" r="3.58"/><circle cx="377.0" cy="591.1" r="3.62"/><circle cx="386.3" cy="591.1" r="3.67"/><circle cx="395.6" cy="591.1" r="3.72"/><circle cx="367.7" cy="600.4" r="3.55"/><circle cx="377.0" cy="600.4" r="3.60"/><circle cx="386.3" cy="600.4" r="3.66"/><circle cx="600.4" cy="600.4" r="4.17"/><circle cx="358.4" cy="609.7" r="3.48"/><circle cx="367.7" cy="609.7" r="3.52"/><circle cx="377.0" cy="609.7" r="3.58"/><circle cx="386.3" cy="609.7" r="3.64"/><circle cx="600.4" cy="609.7" r="4.15"/><circle cx="609.7" cy="609.7" r="4.17"/><circle cx="358.4" cy="619.1" r="3.63"/><circle cx="367.7" cy="619.1" r="3.61"/><circle cx="377.0" cy="619.1" r="3.62"/><circle cx="609.7" cy="619.1" r="4.16"/><circle cx="619.1" cy="619.1" r="4.17"/><circle cx="358.4" cy="628.4" r="3.79"/><circle cx="367.7" cy="628.4" r="3.80"/><circle cx="377.0" cy="628.4" r="3.80"/><circle cx="386.3" cy="628.4" r="3.79"/><circle cx="395.6" cy="628.4" r="3.79"/><circle cx="404.9" cy="628.4" r="3.80"/><circle cx="414.3" cy="628.4" r="3.83"/><circle cx="423.6" cy="628.4" r="3.86"/><circle cx="432.9" cy="628.4" r="3.90"/><circle cx="442.2" cy="628.4" r="3.95"/><circle cx="451.5" cy="628.4" r="3.99"/><circle cx="460.8" cy="628.4" r="4.04"/><circle cx="470.1" cy="628.4" r="4.07"/><circle cx="479.4" cy="628.4" r="4.11"/><circle cx="488.7" cy="628.4" r="4.14"/><circle cx="498.0" cy="628.4" r="4.16"/><circle cx="619.1" cy="628.4" r="4.18"/><circle cx="349.1" cy="637.7" r="3.79"/><circle cx="358.4" cy="637.7" r="3.80"/><circle cx="367.7" cy="637.7" r="3.83"/><circle cx="377.0" cy="637.7" r="3.88"/><circle cx="386.3" cy="637.7" r="3.92"/><circle cx="395.6" cy="637.7" r="3.94"/><circle cx="404.9" cy="637.7" r="3.93"/><circle cx="414.3" cy="637.7" r="3.92"/><circle cx="423.6" cy="637.7" r="3.91"/><circle cx="432.9" cy="637.7" r="3.93"/><circle cx="442.2" cy="637.7" r="3.95"/><circle cx="451.5" cy="637.7" r="3.99"/><circle cx="460.8" cy="637.7" r="4.03"/><circle cx="470.1" cy="637.7" r="4.07"/><circle cx="479.4" cy="637.7" r="4.10"/><circle cx="488.7" cy="637.7" r="4.13"/><circle cx="498.0" cy="637.7" r="4.16"/><circle cx="349.1" cy="647.0" r="3.80"/><circle cx="358.4" cy="647.0" r="3.81"/><circle cx="367.7" cy="647.0" r="3.82"/><circle cx="377.0" cy="647.0" r="3.84"/><circle cx="386.3" cy="647.0" r="3.89"/><circle cx="395.6" cy="647.0" r="3.95"/><circle cx="404.9" cy="647.0" r="4.01"/><circle cx="414.3" cy="647.0" r="4.03"/><circle cx="423.6" cy="647.0" r="4.02"/><circle cx="432.9" cy="647.0" r="4.00"/><circle cx="442.2" cy="647.0" r="3.99"/><circle cx="451.5" cy="647.0" r="4.00"/><circle cx="460.8" cy="647.0" r="4.02"/><circle cx="470.1" cy="647.0" r="4.05"/><circle cx="479.4" cy="647.0" r="4.09"/><circle cx="488.7" cy="647.0" r="4.12"/><circle cx="498.0" cy="647.0" r="4.15"/><circle cx="507.3" cy="647.0" r="4.18"/><circle cx="665.6" cy="647.0" r="4.17"/><circle cx="674.9" cy="647.0" r="4.17"/><circle cx="684.2" cy="647.0" r="4.17"/><circle cx="349.1" cy="656.3" r="3.81"/><circle cx="358.4" cy="656.3" r="3.83"/><circle cx="367.7" cy="656.3" r="3.83"/><circle cx="674.9" cy="656.3" r="4.17"/><circle cx="684.2" cy="656.3" r="4.16"/><circle cx="339.8" cy="665.6" r="3.81"/><circle cx="349.1" cy="665.6" r="3.81"/><circle cx="358.4" cy="665.6" r="3.83"/><circle cx="367.7" cy="665.6" r="3.85"/><circle cx="684.2" cy="665.6" r="4.18"/><circle cx="693.5" cy="665.6" r="4.16"/><circle cx="339.8" cy="674.9" r="3.88"/><circle cx="349.1" cy="674.9" r="3.88"/><circle cx="358.4" cy="674.9" r="3.87"/><circle cx="330.5" cy="684.2" r="3.89"/><circle cx="339.8" cy="684.2" r="3.91"/><circle cx="349.1" cy="684.2" r="3.93"/><circle cx="358.4" cy="684.2" r="3.94"/><circle cx="330.5" cy="693.5" r="3.97"/><circle cx="339.8" cy="693.5" r="3.94"/><circle cx="349.1" cy="693.5" r="3.94"/><circle cx="358.4" cy="693.5" r="3.96"/><circle cx="330.5" cy="702.8" r="4.11"/><circle cx="339.8" cy="702.8" r="4.05"/><circle cx="349.1" cy="702.8" r="4.00"/><circle cx="321.2" cy="712.1" r="4.15"/><circle cx="330.5" cy="712.1" r="4.17"/><circle cx="339.8" cy="712.1" r="4.16"/><circle cx="349.1" cy="712.1" r="4.12"/><circle cx="321.2" cy="721.5" r="4.12"/><circle cx="330.5" cy="721.5" r="4.14"/><circle cx="339.8" cy="721.5" r="4.16"/><circle cx="349.1" cy="721.5" r="4.18"/><circle cx="321.2" cy="730.8" r="4.11"/><circle cx="330.5" cy="730.8" r="4.12"/><circle cx="339.8" cy="730.8" r="4.13"/><circle cx="349.1" cy="730.8" r="4.15"/><circle cx="311.9" cy="740.1" r="4.11"/><circle cx="321.2" cy="740.1" r="4.13"/><circle cx="330.5" cy="740.1" r="4.14"/><circle cx="339.8" cy="740.1" r="4.15"/><circle cx="311.9" cy="749.4" r="4.13"/><circle cx="321.2" cy="749.4" r="4.14"/><circle cx="330.5" cy="749.4" r="4.16"/><circle cx="339.8" cy="749.4" r="4.17"/><circle cx="665.6" cy="758.7" r="4.18"/><circle cx="674.9" cy="758.7" r="4.18"/><circle cx="684.2" cy="758.7" r="4.18"/><circle cx="693.5" cy="758.7" r="4.18"/><circle cx="702.8" cy="758.7" r="4.17"/><circle cx="712.1" cy="758.7" r="4.17"/><circle cx="721.5" cy="758.7" r="4.16"/><circle cx="730.8" cy="758.7" r="4.15"/><circle cx="665.6" cy="768.0" r="4.18"/><circle cx="674.9" cy="768.0" r="4.18"/><circle cx="684.2" cy="768.0" r="4.17"/><circle cx="693.5" cy="768.0" r="4.17"/><circle cx="702.8" cy="768.0" r="4.16"/><circle cx="712.1" cy="768.0" r="4.15"/><circle cx="721.5" cy="768.0" r="4.14"/><circle cx="730.8" cy="768.0" r="4.13"/><circle cx="684.2" cy="777.3" r="4.18"/><circle cx="693.5" cy="777.3" r="4.17"/><circle cx="702.8" cy="777.3" r="4.16"/><circle cx="712.1" cy="777.3" r="4.15"/><circle cx="721.5" cy="777.3" r="4.14"/><circle cx="730.8" cy="777.3" r="4.13"/><circle cx="740.1" cy="777.3" r="4.12"/><circle cx="693.5" cy="786.6" r="4.18"/><circle cx="702.8" cy="786.6" r="4.17"/><circle cx="712.1" cy="786.6" r="4.16"/><circle cx="721.5" cy="786.6" r="4.15"/><circle cx="730.8" cy="786.6" r="4.14"/><circle cx="740.1" cy="786.6" r="4.12"/><circle cx="665.6" cy="795.9" r="4.17"/><circle cx="674.9" cy="795.9" r="4.18"/><circle cx="702.8" cy="795.9" r="4.18"/><circle cx="712.1" cy="795.9" r="4.17"/><circle cx="721.5" cy="795.9" r="4.16"/><circle cx="730.8" cy="795.9" r="4.15"/><circle cx="740.1" cy="795.9" r="4.14"/><circle cx="749.4" cy="795.9" r="4.13"/><circle cx="656.3" cy="805.2" r="4.11"/><circle cx="665.6" cy="805.2" r="4.12"/><circle cx="674.9" cy="805.2" r="4.12"/><circle cx="684.2" cy="805.2" r="4.13"/><circle cx="693.5" cy="805.2" r="4.14"/><circle cx="702.8" cy="805.2" r="4.15"/><circle cx="712.1" cy="805.2" r="4.16"/><circle cx="721.5" cy="805.2" r="4.16"/><circle cx="730.8" cy="805.2" r="4.16"/><circle cx="740.1" cy="805.2" r="4.15"/><circle cx="749.4" cy="805.2" r="4.15"/><circle cx="758.7" cy="805.2" r="4.14"/><circle cx="218.8" cy="814.5" r="4.05"/><circle cx="228.1" cy="814.5" r="4.09"/><circle cx="237.4" cy="814.5" r="4.17"/><circle cx="609.7" cy="814.5" r="3.91"/><circle cx="619.1" cy="814.5" r="3.96"/><circle cx="628.4" cy="814.5" r="4.00"/><circle cx="637.7" cy="814.5" r="4.03"/><circle cx="647.0" cy="814.5" r="4.05"/><circle cx="656.3" cy="814.5" r="4.06"/><circle cx="665.6" cy="814.5" r="4.07"/><circle cx="674.9" cy="814.5" r="4.07"/><circle cx="684.2" cy="814.5" r="4.07"/><circle cx="693.5" cy="814.5" r="4.07"/><circle cx="702.8" cy="814.5" r="4.08"/><circle cx="712.1" cy="814.5" r="4.09"/><circle cx="721.5" cy="814.5" r="4.11"/><circle cx="730.8" cy="814.5" r="4.12"/><circle cx="740.1" cy="814.5" r="4.13"/><circle cx="749.4" cy="814.5" r="4.14"/><circle cx="758.7" cy="814.5" r="4.15"/><circle cx="768.0" cy="814.5" r="4.14"/><circle cx="777.3" cy="814.5" r="4.14"/><circle cx="786.6" cy="814.5" r="4.14"/><circle cx="795.9" cy="814.5" r="4.14"/><circle cx="805.2" cy="814.5" r="4.14"/><circle cx="218.8" cy="823.9" r="4.04"/><circle cx="228.1" cy="823.9" r="4.07"/><circle cx="237.4" cy="823.9" r="4.13"/><circle cx="609.7" cy="823.9" r="3.91"/><circle cx="619.1" cy="823.9" r="3.89"/><circle cx="628.4" cy="823.9" r="3.90"/><circle cx="637.7" cy="823.9" r="3.95"/><circle cx="647.0" cy="823.9" r="4.00"/><circle cx="656.3" cy="823.9" r="4.04"/><circle cx="665.6" cy="823.9" r="4.05"/><circle cx="674.9" cy="823.9" r="4.05"/><circle cx="684.2" cy="823.9" r="4.05"/><circle cx="693.5" cy="823.9" r="4.04"/><circle cx="702.8" cy="823.9" r="4.03"/><circle cx="712.1" cy="823.9" r="4.02"/><circle cx="721.5" cy="823.9" r="4.03"/><circle cx="730.8" cy="823.9" r="4.04"/><circle cx="740.1" cy="823.9" r="4.06"/><circle cx="749.4" cy="823.9" r="4.08"/><circle cx="758.7" cy="823.9" r="4.10"/><circle cx="768.0" cy="823.9" r="4.11"/><circle cx="777.3" cy="823.9" r="4.12"/><circle cx="786.6" cy="823.9" r="4.13"/><circle cx="795.9" cy="823.9" r="4.13"/><circle cx="805.2" cy="823.9" r="4.13"/><circle cx="218.8" cy="833.2" r="4.02"/><circle cx="228.1" cy="833.2" r="4.05"/><circle cx="237.4" cy="833.2" r="4.08"/><circle cx="246.7" cy="833.2" r="4.16"/><circle cx="609.7" cy="833.2" r="4.00"/><circle cx="619.1" cy="833.2" r="3.96"/><circle cx="628.4" cy="833.2" r="3.92"/><circle cx="637.7" cy="833.2" r="3.89"/><circle cx="647.0" cy="833.2" r="3.88"/><circle cx="656.3" cy="833.2" r="3.93"/><circle cx="665.6" cy="833.2" r="3.99"/><circle cx="674.9" cy="833.2" r="4.03"/><circle cx="684.2" cy="833.2" r="4.04"/><circle cx="693.5" cy="833.2" r="4.03"/><circle cx="702.8" cy="833.2" r="4.02"/><circle cx="712.1" cy="833.2" r="4.01"/><circle cx="721.5" cy="833.2" r="3.99"/><circle cx="730.8" cy="833.2" r="3.98"/><circle cx="740.1" cy="833.2" r="3.99"/><circle cx="749.4" cy="833.2" r="4.00"/><circle cx="758.7" cy="833.2" r="4.01"/><circle cx="768.0" cy="833.2" r="4.03"/><circle cx="777.3" cy="833.2" r="4.06"/><circle cx="786.6" cy="833.2" r="4.08"/><circle cx="795.9" cy="833.2" r="4.09"/><circle cx="805.2" cy="833.2" r="4.09"/></g><g fill="#2230f5"><circle cx="404.9" cy="256.0" r="4.48"/><circle cx="414.3" cy="256.0" r="4.48"/><circle cx="423.6" cy="256.0" r="4.48"/><circle cx="432.9" cy="256.0" r="4.48"/><circle cx="442.2" cy="256.0" r="4.48"/><circle cx="451.5" cy="256.0" r="4.48"/><circle cx="460.8" cy="256.0" r="4.48"/><circle cx="470.1" cy="256.0" r="4.49"/><circle cx="479.4" cy="256.0" r="4.49"/><circle cx="488.7" cy="256.0" r="4.50"/><circle cx="498.0" cy="256.0" r="4.51"/><circle cx="507.3" cy="256.0" r="4.51"/><circle cx="516.7" cy="256.0" r="4.51"/><circle cx="526.0" cy="256.0" r="4.51"/><circle cx="535.3" cy="256.0" r="4.50"/><circle cx="404.9" cy="265.3" r="4.47"/><circle cx="414.3" cy="265.3" r="4.47"/><circle cx="423.6" cy="265.3" r="4.47"/><circle cx="432.9" cy="265.3" r="4.48"/><circle cx="442.2" cy="265.3" r="4.48"/><circle cx="451.5" cy="265.3" r="4.48"/><circle cx="460.8" cy="265.3" r="4.48"/><circle cx="470.1" cy="265.3" r="4.47"/><circle cx="479.4" cy="265.3" r="4.47"/><circle cx="488.7" cy="265.3" r="4.48"/><circle cx="498.0" cy="265.3" r="4.48"/><circle cx="507.3" cy="265.3" r="4.49"/><circle cx="516.7" cy="265.3" r="4.49"/><circle cx="526.0" cy="265.3" r="4.49"/><circle cx="535.3" cy="265.3" r="4.49"/><circle cx="544.6" cy="265.3" r="4.48"/><circle cx="442.2" cy="274.6" r="4.47"/><circle cx="451.5" cy="274.6" r="4.47"/><circle cx="460.8" cy="274.6" r="4.47"/><circle cx="470.1" cy="274.6" r="4.47"/><circle cx="479.4" cy="274.6" r="4.46"/><circle cx="488.7" cy="274.6" r="4.46"/><circle cx="498.0" cy="274.6" r="4.46"/><circle cx="507.3" cy="274.6" r="4.46"/><circle cx="516.7" cy="274.6" r="4.46"/><circle cx="526.0" cy="274.6" r="4.47"/><circle cx="535.3" cy="274.6" r="4.47"/><circle cx="544.6" cy="274.6" r="4.46"/><circle cx="460.8" cy="283.9" r="4.45"/><circle cx="470.1" cy="283.9" r="4.45"/><circle cx="479.4" cy="283.9" r="4.45"/><circle cx="488.7" cy="283.9" r="4.45"/><circle cx="498.0" cy="283.9" r="4.45"/><circle cx="507.3" cy="283.9" r="4.45"/><circle cx="516.7" cy="283.9" r="4.44"/><circle cx="526.0" cy="283.9" r="4.44"/><circle cx="535.3" cy="283.9" r="4.44"/><circle cx="544.6" cy="283.9" r="4.44"/><circle cx="553.9" cy="283.9" r="4.43"/><circle cx="460.8" cy="293.2" r="4.44"/><circle cx="470.1" cy="293.2" r="4.44"/><circle cx="479.4" cy="293.2" r="4.44"/><circle cx="488.7" cy="293.2" r="4.44"/><circle cx="498.0" cy="293.2" r="4.44"/><circle cx="507.3" cy="293.2" r="4.44"/><circle cx="516.7" cy="293.2" r="4.43"/><circle cx="526.0" cy="293.2" r="4.43"/><circle cx="535.3" cy="293.2" r="4.42"/><circle cx="544.6" cy="293.2" r="4.42"/><circle cx="553.9" cy="293.2" r="4.42"/><circle cx="460.8" cy="302.5" r="4.42"/><circle cx="470.1" cy="302.5" r="4.42"/><circle cx="479.4" cy="302.5" r="4.42"/><circle cx="488.7" cy="302.5" r="4.42"/><circle cx="498.0" cy="302.5" r="4.42"/><circle cx="507.3" cy="302.5" r="4.42"/><circle cx="516.7" cy="302.5" r="4.42"/><circle cx="526.0" cy="302.5" r="4.42"/><circle cx="535.3" cy="302.5" r="4.41"/><circle cx="544.6" cy="302.5" r="4.41"/><circle cx="553.9" cy="302.5" r="4.40"/><circle cx="460.8" cy="311.9" r="4.42"/><circle cx="470.1" cy="311.9" r="4.42"/><circle cx="479.4" cy="311.9" r="4.42"/><circle cx="488.7" cy="311.9" r="4.42"/><circle cx="498.0" cy="311.9" r="4.42"/><circle cx="507.3" cy="311.9" r="4.42"/><circle cx="516.7" cy="311.9" r="4.42"/><circle cx="526.0" cy="311.9" r="4.41"/><circle cx="535.3" cy="311.9" r="4.41"/><circle cx="544.6" cy="311.9" r="4.41"/><circle cx="553.9" cy="311.9" r="4.40"/><circle cx="563.2" cy="311.9" r="4.40"/><circle cx="460.8" cy="321.2" r="4.42"/><circle cx="470.1" cy="321.2" r="4.42"/><circle cx="479.4" cy="321.2" r="4.42"/><circle cx="488.7" cy="321.2" r="4.42"/><circle cx="498.0" cy="321.2" r="4.42"/><circle cx="507.3" cy="321.2" r="4.42"/><circle cx="516.7" cy="321.2" r="4.42"/><circle cx="526.0" cy="321.2" r="4.42"/><circle cx="535.3" cy="321.2" r="4.42"/><circle cx="544.6" cy="321.2" r="4.42"/><circle cx="553.9" cy="321.2" r="4.41"/><circle cx="563.2" cy="321.2" r="4.41"/><circle cx="451.5" cy="330.5" r="4.43"/><circle cx="460.8" cy="330.5" r="4.42"/><circle cx="470.1" cy="330.5" r="4.42"/><circle cx="479.4" cy="330.5" r="4.41"/><circle cx="498.0" cy="330.5" r="4.41"/><circle cx="507.3" cy="330.5" r="4.41"/><circle cx="516.7" cy="330.5" r="4.41"/><circle cx="526.0" cy="330.5" r="4.42"/><circle cx="535.3" cy="330.5" r="4.42"/><circle cx="544.6" cy="330.5" r="4.42"/><circle cx="553.9" cy="330.5" r="4.42"/><circle cx="563.2" cy="330.5" r="4.42"/><circle cx="451.5" cy="339.8" r="4.43"/><circle cx="460.8" cy="339.8" r="4.42"/><circle cx="470.1" cy="339.8" r="4.41"/><circle cx="479.4" cy="339.8" r="4.40"/><circle cx="507.3" cy="339.8" r="4.38"/><circle cx="516.7" cy="339.8" r="4.38"/><circle cx="526.0" cy="339.8" r="4.39"/><circle cx="535.3" cy="339.8" r="4.39"/><circle cx="544.6" cy="339.8" r="4.40"/><circle cx="553.9" cy="339.8" r="4.40"/><circle cx="563.2" cy="339.8" r="4.41"/><circle cx="572.5" cy="339.8" r="4.41"/><circle cx="451.5" cy="349.1" r="4.45"/><circle cx="460.8" cy="349.1" r="4.43"/><circle cx="470.1" cy="349.1" r="4.41"/><circle cx="479.4" cy="349.1" r="4.40"/><circle cx="507.3" cy="349.1" r="4.38"/><circle cx="516.7" cy="349.1" r="4.37"/><circle cx="526.0" cy="349.1" r="4.37"/><circle cx="535.3" cy="349.1" r="4.36"/><circle cx="544.6" cy="349.1" r="4.36"/><circle cx="553.9" cy="349.1" r="4.37"/><circle cx="563.2" cy="349.1" r="4.37"/><circle cx="572.5" cy="349.1" r="4.38"/><circle cx="442.2" cy="358.4" r="4.57"/><circle cx="451.5" cy="358.4" r="4.54"/><circle cx="460.8" cy="358.4" r="4.50"/><circle cx="470.1" cy="358.4" r="4.47"/><circle cx="516.7" cy="358.4" r="4.41"/><circle cx="526.0" cy="358.4" r="4.40"/><circle cx="535.3" cy="358.4" r="4.40"/><circle cx="544.6" cy="358.4" r="4.39"/><circle cx="553.9" cy="358.4" r="4.38"/><circle cx="563.2" cy="358.4" r="4.37"/><circle cx="572.5" cy="358.4" r="4.37"/><circle cx="442.2" cy="367.7" r="4.62"/><circle cx="451.5" cy="367.7" r="4.61"/><circle cx="460.8" cy="367.7" r="4.59"/><circle cx="470.1" cy="367.7" r="4.56"/><circle cx="516.7" cy="367.7" r="4.47"/><circle cx="526.0" cy="367.7" r="4.47"/><circle cx="535.3" cy="367.7" r="4.47"/><circle cx="544.6" cy="367.7" r="4.46"/><circle cx="553.9" cy="367.7" r="4.46"/><circle cx="563.2" cy="367.7" r="4.45"/><circle cx="572.5" cy="367.7" r="4.43"/><circle cx="581.8" cy="367.7" r="4.42"/><circle cx="442.2" cy="377.0" r="4.57"/><circle cx="451.5" cy="377.0" r="4.56"/><circle cx="460.8" cy="377.0" r="4.56"/><circle cx="516.7" cy="377.0" r="4.52"/><circle cx="526.0" cy="377.0" r="4.52"/><circle cx="535.3" cy="377.0" r="4.52"/><circle cx="544.6" cy="377.0" r="4.52"/><circle cx="553.9" cy="377.0" r="4.52"/><circle cx="563.2" cy="377.0" r="4.52"/><circle cx="572.5" cy="377.0" r="4.51"/><circle cx="581.8" cy="377.0" r="4.50"/><circle cx="442.2" cy="386.3" r="4.61"/><circle cx="451.5" cy="386.3" r="4.60"/><circle cx="460.8" cy="386.3" r="4.58"/><circle cx="526.0" cy="386.3" r="4.54"/><circle cx="535.3" cy="386.3" r="4.54"/><circle cx="544.6" cy="386.3" r="4.54"/><circle cx="553.9" cy="386.3" r="4.54"/><circle cx="563.2" cy="386.3" r="4.54"/><circle cx="572.5" cy="386.3" r="4.54"/><circle cx="581.8" cy="386.3" r="4.53"/><circle cx="591.1" cy="386.3" r="4.52"/><circle cx="432.9" cy="395.6" r="4.54"/><circle cx="442.2" cy="395.6" r="4.55"/><circle cx="451.5" cy="395.6" r="4.56"/><circle cx="460.8" cy="395.6" r="4.58"/><circle cx="526.0" cy="395.6" r="4.54"/><circle cx="535.3" cy="395.6" r="4.54"/><circle cx="544.6" cy="395.6" r="4.54"/><circle cx="553.9" cy="395.6" r="4.54"/><circle cx="563.2" cy="395.6" r="4.54"/><circle cx="572.5" cy="395.6" r="4.54"/><circle cx="581.8" cy="395.6" r="4.53"/><circle cx="591.1" cy="395.6" r="4.53"/><circle cx="432.9" cy="404.9" r="4.50"/><circle cx="442.2" cy="404.9" r="4.50"/><circle cx="451.5" cy="404.9" r="4.50"/><circle cx="460.8" cy="404.9" r="4.51"/><circle cx="526.0" cy="404.9" r="4.58"/><circle cx="535.3" cy="404.9" r="4.56"/><circle cx="544.6" cy="404.9" r="4.55"/><circle cx="553.9" cy="404.9" r="4.54"/><circle cx="563.2" cy="404.9" r="4.54"/><circle cx="572.5" cy="404.9" r="4.54"/><circle cx="581.8" cy="404.9" r="4.53"/><circle cx="591.1" cy="404.9" r="4.53"/><circle cx="432.9" cy="414.3" r="4.50"/><circle cx="442.2" cy="414.3" r="4.50"/><circle cx="451.5" cy="414.3" r="4.49"/><circle cx="535.3" cy="414.3" r="4.62"/><circle cx="544.6" cy="414.3" r="4.61"/><circle cx="553.9" cy="414.3" r="4.59"/><circle cx="563.2" cy="414.3" r="4.58"/><circle cx="572.5" cy="414.3" r="4.56"/><circle cx="581.8" cy="414.3" r="4.55"/><circle cx="591.1" cy="414.3" r="4.55"/><circle cx="600.4" cy="414.3" r="4.54"/><circle cx="423.6" cy="423.6" r="4.49"/><circle cx="432.9" cy="423.6" r="4.49"/><circle cx="442.2" cy="423.6" r="4.49"/><circle cx="451.5" cy="423.6" r="4.49"/><circle cx="535.3" cy="423.6" r="4.56"/><circle cx="544.6" cy="423.6" r="4.59"/><circle cx="553.9" cy="423.6" r="4.62"/><circle cx="563.2" cy="423.6" r="4.63"/><circle cx="572.5" cy="423.6" r="4.62"/><circle cx="581.8" cy="423.6" r="4.61"/><circle cx="591.1" cy="423.6" r="4.59"/><circle cx="600.4" cy="423.6" r="4.58"/><circle cx="423.6" cy="432.9" r="4.48"/><circle cx="432.9" cy="432.9" r="4.48"/><circle cx="442.2" cy="432.9" r="4.48"/><circle cx="535.3" cy="432.9" r="4.49"/><circle cx="544.6" cy="432.9" r="4.51"/><circle cx="553.9" cy="432.9" r="4.54"/><circle cx="563.2" cy="432.9" r="4.57"/><circle cx="572.5" cy="432.9" r="4.60"/><circle cx="581.8" cy="432.9" r="4.61"/><circle cx="591.1" cy="432.9" r="4.62"/><circle cx="600.4" cy="432.9" r="4.62"/><circle cx="414.3" cy="442.2" r="4.43"/><circle cx="423.6" cy="442.2" r="4.45"/><circle cx="432.9" cy="442.2" r="4.46"/><circle cx="442.2" cy="442.2" r="4.47"/><circle cx="544.6" cy="442.2" r="4.49"/><circle cx="553.9" cy="442.2" r="4.49"/><circle cx="563.2" cy="442.2" r="4.51"/><circle cx="572.5" cy="442.2" r="4.53"/><circle cx="581.8" cy="442.2" r="4.56"/><circle cx="591.1" cy="442.2" r="4.58"/><circle cx="600.4" cy="442.2" r="4.60"/><circle cx="609.7" cy="442.2" r="4.61"/><circle cx="414.3" cy="451.5" r="4.39"/><circle cx="423.6" cy="451.5" r="4.41"/><circle cx="432.9" cy="451.5" r="4.42"/><circle cx="442.2" cy="451.5" r="4.44"/><circle cx="544.6" cy="451.5" r="4.50"/><circle cx="553.9" cy="451.5" r="4.50"/><circle cx="563.2" cy="451.5" r="4.50"/><circle cx="572.5" cy="451.5" r="4.50"/><circle cx="581.8" cy="451.5" r="4.51"/><circle cx="591.1" cy="451.5" r="4.53"/><circle cx="600.4" cy="451.5" r="4.55"/><circle cx="609.7" cy="451.5" r="4.57"/><circle cx="414.3" cy="460.8" r="4.37"/><circle cx="423.6" cy="460.8" r="4.38"/><circle cx="432.9" cy="460.8" r="4.39"/><circle cx="553.9" cy="460.8" r="4.51"/><circle cx="563.2" cy="460.8" r="4.51"/><circle cx="572.5" cy="460.8" r="4.51"/><circle cx="581.8" cy="460.8" r="4.51"/><circle cx="591.1" cy="460.8" r="4.51"/><circle cx="600.4" cy="460.8" r="4.52"/><circle cx="609.7" cy="460.8" r="4.53"/><circle cx="414.3" cy="470.1" r="4.35"/><circle cx="423.6" cy="470.1" r="4.36"/><circle cx="432.9" cy="470.1" r="4.38"/><circle cx="553.9" cy="470.1" r="4.53"/><circle cx="563.2" cy="470.1" r="4.53"/><circle cx="572.5" cy="470.1" r="4.53"/><circle cx="581.8" cy="470.1" r="4.53"/><circle cx="591.1" cy="470.1" r="4.52"/><circle cx="600.4" cy="470.1" r="4.52"/><circle cx="609.7" cy="470.1" r="4.52"/><circle cx="619.1" cy="470.1" r="4.53"/><circle cx="404.9" cy="479.4" r="4.25"/><circle cx="414.3" cy="479.4" r="4.28"/><circle cx="423.6" cy="479.4" r="4.31"/><circle cx="432.9" cy="479.4" r="4.34"/><circle cx="553.9" cy="479.4" r="4.57"/><circle cx="563.2" cy="479.4" r="4.57"/><circle cx="572.5" cy="479.4" r="4.57"/><circle cx="581.8" cy="479.4" r="4.57"/><circle cx="591.1" cy="479.4" r="4.56"/><circle cx="600.4" cy="479.4" r="4.55"/><circle cx="609.7" cy="479.4" r="4.54"/><circle cx="619.1" cy="479.4" r="4.53"/><circle cx="414.3" cy="488.7" r="4.20"/><circle cx="423.6" cy="488.7" r="4.22"/><circle cx="563.2" cy="488.7" r="4.63"/><circle cx="572.5" cy="488.7" r="4.62"/><circle cx="581.8" cy="488.7" r="4.62"/><circle cx="591.1" cy="488.7" r="4.61"/><circle cx="600.4" cy="488.7" r="4.59"/><circle cx="609.7" cy="488.7" r="4.58"/><circle cx="619.1" cy="488.7" r="4.56"/><circle cx="628.4" cy="488.7" r="4.54"/><circle cx="563.2" cy="498.0" r="4.66"/><circle cx="572.5" cy="498.0" r="4.67"/><circle cx="581.8" cy="498.0" r="4.67"/><circle cx="591.1" cy="498.0" r="4.66"/><circle cx="600.4" cy="498.0" r="4.65"/><circle cx="609.7" cy="498.0" r="4.63"/><circle cx="619.1" cy="498.0" r="4.61"/><circle cx="628.4" cy="498.0" r="4.58"/><circle cx="563.2" cy="507.3" r="4.68"/><circle cx="572.5" cy="507.3" r="4.69"/><circle cx="581.8" cy="507.3" r="4.69"/><circle cx="591.1" cy="507.3" r="4.69"/><circle cx="600.4" cy="507.3" r="4.69"/><circle cx="609.7" cy="507.3" r="4.68"/><circle cx="619.1" cy="507.3" r="4.66"/><circle cx="628.4" cy="507.3" r="4.64"/><circle cx="572.5" cy="516.7" r="4.69"/><circle cx="581.8" cy="516.7" r="4.70"/><circle cx="591.1" cy="516.7" r="4.71"/><circle cx="600.4" cy="516.7" r="4.71"/><circle cx="609.7" cy="516.7" r="4.71"/><circle cx="619.1" cy="516.7" r="4.71"/><circle cx="628.4" cy="516.7" r="4.69"/><circle cx="637.7" cy="516.7" r="4.67"/><circle cx="572.5" cy="526.0" r="4.66"/><circle cx="581.8" cy="526.0" r="4.69"/><circle cx="591.1" cy="526.0" r="4.70"/><circle cx="600.4" cy="526.0" r="4.72"/><circle cx="609.7" cy="526.0" r="4.72"/><circle cx="619.1" cy="526.0" r="4.72"/><circle cx="628.4" cy="526.0" r="4.72"/><circle cx="637.7" cy="526.0" r="4.71"/><circle cx="581.8" cy="535.3" r="4.63"/><circle cx="591.1" cy="535.3" r="4.67"/><circle cx="600.4" cy="535.3" r="4.70"/><circle cx="609.7" cy="535.3" r="4.71"/><circle cx="619.1" cy="535.3" r="4.72"/><circle cx="628.4" cy="535.3" r="4.73"/><circle cx="637.7" cy="535.3" r="4.73"/><circle cx="647.0" cy="535.3" r="4.72"/><circle cx="581.8" cy="544.6" r="4.52"/><circle cx="591.1" cy="544.6" r="4.59"/><circle cx="600.4" cy="544.6" r="4.64"/><circle cx="609.7" cy="544.6" r="4.68"/><circle cx="619.1" cy="544.6" r="4.71"/><circle cx="628.4" cy="544.6" r="4.72"/><circle cx="637.7" cy="544.6" r="4.73"/><circle cx="647.0" cy="544.6" r="4.73"/><circle cx="581.8" cy="553.9" r="4.40"/><circle cx="591.1" cy="553.9" r="4.47"/><circle cx="600.4" cy="553.9" r="4.54"/><circle cx="609.7" cy="553.9" r="4.60"/><circle cx="619.1" cy="553.9" r="4.65"/><circle cx="628.4" cy="553.9" r="4.69"/><circle cx="637.7" cy="553.9" r="4.71"/><circle cx="647.0" cy="553.9" r="4.72"/><circle cx="591.1" cy="563.2" r="4.36"/><circle cx="600.4" cy="563.2" r="4.42"/><circle cx="609.7" cy="563.2" r="4.48"/><circle cx="619.1" cy="563.2" r="4.55"/><circle cx="628.4" cy="563.2" r="4.61"/><circle cx="637.7" cy="563.2" r="4.66"/><circle cx="647.0" cy="563.2" r="4.69"/><circle cx="656.3" cy="563.2" r="4.71"/><circle cx="591.1" cy="572.5" r="4.29"/><circle cx="600.4" cy="572.5" r="4.33"/><circle cx="609.7" cy="572.5" r="4.37"/><circle cx="619.1" cy="572.5" r="4.43"/><circle cx="628.4" cy="572.5" r="4.49"/><circle cx="637.7" cy="572.5" r="4.56"/><circle cx="647.0" cy="572.5" r="4.62"/><circle cx="656.3" cy="572.5" r="4.66"/><circle cx="591.1" cy="581.8" r="4.23"/><circle cx="600.4" cy="581.8" r="4.27"/><circle cx="609.7" cy="581.8" r="4.31"/><circle cx="619.1" cy="581.8" r="4.34"/><circle cx="628.4" cy="581.8" r="4.39"/><circle cx="637.7" cy="581.8" r="4.45"/><circle cx="647.0" cy="581.8" r="4.51"/><circle cx="656.3" cy="581.8" r="4.58"/><circle cx="600.4" cy="591.1" r="4.21"/><circle cx="609.7" cy="591.1" r="4.25"/><circle cx="619.1" cy="591.1" r="4.28"/><circle cx="628.4" cy="591.1" r="4.32"/><circle cx="637.7" cy="591.1" r="4.37"/><circle cx="647.0" cy="591.1" r="4.42"/><circle cx="656.3" cy="591.1" r="4.48"/><circle cx="665.6" cy="591.1" r="4.54"/><circle cx="609.7" cy="600.4" r="4.20"/><circle cx="619.1" cy="600.4" r="4.23"/><circle cx="628.4" cy="600.4" r="4.27"/><circle cx="637.7" cy="600.4" r="4.30"/><circle cx="647.0" cy="600.4" r="4.35"/><circle cx="656.3" cy="600.4" r="4.39"/><circle cx="665.6" cy="600.4" r="4.45"/><circle cx="619.1" cy="609.7" r="4.19"/><circle cx="628.4" cy="609.7" r="4.22"/><circle cx="637.7" cy="609.7" r="4.25"/><circle cx="647.0" cy="609.7" r="4.29"/><circle cx="656.3" cy="609.7" r="4.32"/><circle cx="665.6" cy="609.7" r="4.37"/><circle cx="628.4" cy="619.1" r="4.19"/><circle cx="637.7" cy="619.1" r="4.21"/><circle cx="647.0" cy="619.1" r="4.23"/><circle cx="656.3" cy="619.1" r="4.26"/><circle cx="665.6" cy="619.1" r="4.30"/><circle cx="674.9" cy="619.1" r="4.33"/><circle cx="507.3" cy="628.4" r="4.19"/><circle cx="516.7" cy="628.4" r="4.21"/><circle cx="526.0" cy="628.4" r="4.23"/><circle cx="535.3" cy="628.4" r="4.25"/><circle cx="544.6" cy="628.4" r="4.26"/><circle cx="553.9" cy="628.4" r="4.26"/><circle cx="563.2" cy="628.4" r="4.25"/><circle cx="572.5" cy="628.4" r="4.24"/><circle cx="581.8" cy="628.4" r="4.22"/><circle cx="591.1" cy="628.4" r="4.21"/><circle cx="600.4" cy="628.4" r="4.19"/><circle cx="609.7" cy="628.4" r="4.18"/><circle cx="628.4" cy="628.4" r="4.18"/><circle cx="637.7" cy="628.4" r="4.19"/><circle cx="647.0" cy="628.4" r="4.20"/><circle cx="656.3" cy="628.4" r="4.21"/><circle cx="665.6" cy="628.4" r="4.23"/><circle cx="674.9" cy="628.4" r="4.26"/><circle cx="507.3" cy="637.7" r="4.19"/><circle cx="516.7" cy="637.7" r="4.21"/><circle cx="526.0" cy="637.7" r="4.23"/><circle cx="535.3" cy="637.7" r="4.26"/><circle cx="544.6" cy="637.7" r="4.27"/><circle cx="553.9" cy="637.7" r="4.29"/><circle cx="563.2" cy="637.7" r="4.30"/><circle cx="572.5" cy="637.7" r="4.30"/><circle cx="581.8" cy="637.7" r="4.28"/><circle cx="591.1" cy="637.7" r="4.27"/><circle cx="600.4" cy="637.7" r="4.25"/><circle cx="609.7" cy="637.7" r="4.23"/><circle cx="619.1" cy="637.7" r="4.21"/><circle cx="628.4" cy="637.7" r="4.20"/><circle cx="637.7" cy="637.7" r="4.19"/><circle cx="647.0" cy="637.7" r="4.19"/><circle cx="656.3" cy="637.7" r="4.19"/><circle cx="665.6" cy="637.7" r="4.19"/><circle cx="674.9" cy="637.7" r="4.20"/><circle cx="516.7" cy="647.0" r="4.21"/><circle cx="526.0" cy="647.0" r="4.24"/><circle cx="535.3" cy="647.0" r="4.26"/><circle cx="544.6" cy="647.0" r="4.28"/><circle cx="553.9" cy="647.0" r="4.30"/><circle cx="563.2" cy="647.0" r="4.31"/><circle cx="572.5" cy="647.0" r="4.32"/><circle cx="581.8" cy="647.0" r="4.32"/><circle cx="591.1" cy="647.0" r="4.31"/><circle cx="600.4" cy="647.0" r="4.30"/><circle cx="609.7" cy="647.0" r="4.28"/><circle cx="619.1" cy="647.0" r="4.26"/><circle cx="628.4" cy="647.0" r="4.24"/><circle cx="637.7" cy="647.0" r="4.22"/><circle cx="647.0" cy="647.0" r="4.21"/><circle cx="656.3" cy="647.0" r="4.19"/><circle cx="619.1" cy="656.3" r="4.31"/><circle cx="628.4" cy="656.3" r="4.29"/><circle cx="637.7" cy="656.3" r="4.27"/><circle cx="647.0" cy="656.3" r="4.24"/><circle cx="656.3" cy="656.3" r="4.22"/><circle cx="665.6" cy="656.3" r="4.19"/><circle cx="628.4" cy="665.6" r="4.32"/><circle cx="637.7" cy="665.6" r="4.30"/><circle cx="647.0" cy="665.6" r="4.28"/><circle cx="656.3" cy="665.6" r="4.26"/><circle cx="665.6" cy="665.6" r="4.23"/><circle cx="674.9" cy="665.6" r="4.20"/><circle cx="628.4" cy="674.9" r="4.34"/><circle cx="637.7" cy="674.9" r="4.33"/><circle cx="647.0" cy="674.9" r="4.31"/><circle cx="656.3" cy="674.9" r="4.29"/><circle cx="665.6" cy="674.9" r="4.27"/><circle cx="674.9" cy="674.9" r="4.25"/><circle cx="684.2" cy="674.9" r="4.22"/><circle cx="693.5" cy="674.9" r="4.20"/><circle cx="628.4" cy="684.2" r="4.37"/><circle cx="637.7" cy="684.2" r="4.36"/><circle cx="647.0" cy="684.2" r="4.34"/><circle cx="656.3" cy="684.2" r="4.32"/><circle cx="665.6" cy="684.2" r="4.31"/><circle cx="674.9" cy="684.2" r="4.29"/><circle cx="684.2" cy="684.2" r="4.27"/><circle cx="693.5" cy="684.2" r="4.25"/><circle cx="637.7" cy="693.5" r="4.39"/><circle cx="647.0" cy="693.5" r="4.37"/><circle cx="656.3" cy="693.5" r="4.35"/><circle cx="665.6" cy="693.5" r="4.33"/><circle cx="674.9" cy="693.5" r="4.32"/><circle cx="684.2" cy="693.5" r="4.31"/><circle cx="693.5" cy="693.5" r="4.30"/><circle cx="702.8" cy="693.5" r="4.28"/><circle cx="637.7" cy="702.8" r="4.40"/><circle cx="647.0" cy="702.8" r="4.39"/><circle cx="656.3" cy="702.8" r="4.37"/><circle cx="665.6" cy="702.8" r="4.35"/><circle cx="674.9" cy="702.8" r="4.34"/><circle cx="684.2" cy="702.8" r="4.33"/><circle cx="693.5" cy="702.8" r="4.32"/><circle cx="702.8" cy="702.8" r="4.32"/><circle cx="637.7" cy="712.1" r="4.37"/><circle cx="647.0" cy="712.1" r="4.37"/><circle cx="656.3" cy="712.1" r="4.36"/><circle cx="665.6" cy="712.1" r="4.35"/><circle cx="674.9" cy="712.1" r="4.34"/><circle cx="684.2" cy="712.1" r="4.34"/><circle cx="693.5" cy="712.1" r="4.33"/><circle cx="702.8" cy="712.1" r="4.33"/><circle cx="712.1" cy="712.1" r="4.33"/><circle cx="647.0" cy="721.5" r="4.32"/><circle cx="656.3" cy="721.5" r="4.32"/><circle cx="665.6" cy="721.5" r="4.32"/><circle cx="674.9" cy="721.5" r="4.31"/><circle cx="684.2" cy="721.5" r="4.31"/><circle cx="693.5" cy="721.5" r="4.31"/><circle cx="702.8" cy="721.5" r="4.31"/><circle cx="712.1" cy="721.5" r="4.32"/><circle cx="647.0" cy="730.8" r="4.27"/><circle cx="656.3" cy="730.8" r="4.27"/><circle cx="665.6" cy="730.8" r="4.27"/><circle cx="674.9" cy="730.8" r="4.27"/><circle cx="684.2" cy="730.8" r="4.27"/><circle cx="693.5" cy="730.8" r="4.27"/><circle cx="702.8" cy="730.8" r="4.28"/><circle cx="712.1" cy="730.8" r="4.28"/><circle cx="647.0" cy="740.1" r="4.22"/><circle cx="656.3" cy="740.1" r="4.22"/><circle cx="665.6" cy="740.1" r="4.22"/><circle cx="674.9" cy="740.1" r="4.22"/><circle cx="684.2" cy="740.1" r="4.23"/><circle cx="693.5" cy="740.1" r="4.23"/><circle cx="702.8" cy="740.1" r="4.23"/><circle cx="712.1" cy="740.1" r="4.24"/><circle cx="721.5" cy="740.1" r="4.24"/><circle cx="656.3" cy="749.4" r="4.19"/><circle cx="665.6" cy="749.4" r="4.20"/><circle cx="674.9" cy="749.4" r="4.20"/><circle cx="684.2" cy="749.4" r="4.20"/><circle cx="693.5" cy="749.4" r="4.20"/><circle cx="702.8" cy="749.4" r="4.20"/><circle cx="712.1" cy="749.4" r="4.19"/><circle cx="721.5" cy="749.4" r="4.19"/><circle cx="302.5" cy="758.7" r="4.18"/><circle cx="311.9" cy="758.7" r="4.18"/><circle cx="321.2" cy="758.7" r="4.19"/><circle cx="330.5" cy="758.7" r="4.20"/><circle cx="339.8" cy="758.7" r="4.21"/><circle cx="656.3" cy="758.7" r="4.18"/><circle cx="302.5" cy="768.0" r="4.30"/><circle cx="311.9" cy="768.0" r="4.30"/><circle cx="321.2" cy="768.0" r="4.29"/><circle cx="330.5" cy="768.0" r="4.28"/><circle cx="339.8" cy="768.0" r="4.28"/><circle cx="656.3" cy="768.0" r="4.19"/><circle cx="293.2" cy="777.3" r="4.38"/><circle cx="302.5" cy="777.3" r="4.40"/><circle cx="311.9" cy="777.3" r="4.40"/><circle cx="321.2" cy="777.3" r="4.41"/><circle cx="330.5" cy="777.3" r="4.40"/><circle cx="339.8" cy="777.3" r="4.39"/><circle cx="656.3" cy="777.3" r="4.21"/><circle cx="665.6" cy="777.3" r="4.20"/><circle cx="674.9" cy="777.3" r="4.18"/><circle cx="283.9" cy="786.6" r="4.38"/><circle cx="293.2" cy="786.6" r="4.40"/><circle cx="302.5" cy="786.6" r="4.43"/><circle cx="311.9" cy="786.6" r="4.45"/><circle cx="321.2" cy="786.6" r="4.47"/><circle cx="330.5" cy="786.6" r="4.48"/><circle cx="339.8" cy="786.6" r="4.48"/><circle cx="665.6" cy="786.6" r="4.21"/><circle cx="674.9" cy="786.6" r="4.20"/><circle cx="684.2" cy="786.6" r="4.19"/><circle cx="274.6" cy="795.9" r="4.36"/><circle cx="283.9" cy="795.9" r="4.38"/><circle cx="293.2" cy="795.9" r="4.40"/><circle cx="302.5" cy="795.9" r="4.42"/><circle cx="311.9" cy="795.9" r="4.45"/><circle cx="321.2" cy="795.9" r="4.47"/><circle cx="330.5" cy="795.9" r="4.50"/><circle cx="339.8" cy="795.9" r="4.51"/><circle cx="684.2" cy="795.9" r="4.19"/><circle cx="693.5" cy="795.9" r="4.19"/><circle cx="265.3" cy="805.2" r="4.35"/><circle cx="274.6" cy="805.2" r="4.38"/><circle cx="283.9" cy="805.2" r="4.39"/><circle cx="293.2" cy="805.2" r="4.40"/><circle cx="302.5" cy="805.2" r="4.41"/><circle cx="311.9" cy="805.2" r="4.42"/><circle cx="321.2" cy="805.2" r="4.44"/><circle cx="330.5" cy="805.2" r="4.47"/><circle cx="339.8" cy="805.2" r="4.50"/><circle cx="246.7" cy="814.5" r="4.26"/><circle cx="256.0" cy="814.5" r="4.32"/><circle cx="265.3" cy="814.5" r="4.36"/><circle cx="274.6" cy="814.5" r="4.39"/><circle cx="283.9" cy="814.5" r="4.40"/><circle cx="293.2" cy="814.5" r="4.40"/><circle cx="302.5" cy="814.5" r="4.41"/><circle cx="311.9" cy="814.5" r="4.41"/><circle cx="321.2" cy="814.5" r="4.42"/><circle cx="330.5" cy="814.5" r="4.43"/><circle cx="339.8" cy="814.5" r="4.46"/><circle cx="349.1" cy="814.5" r="4.49"/><circle cx="358.4" cy="814.5" r="4.52"/><circle cx="367.7" cy="814.5" r="4.54"/><circle cx="377.0" cy="814.5" r="4.56"/><circle cx="386.3" cy="814.5" r="4.57"/><circle cx="395.6" cy="814.5" r="4.57"/><circle cx="246.7" cy="823.9" r="4.22"/><circle cx="256.0" cy="823.9" r="4.30"/><circle cx="265.3" cy="823.9" r="4.35"/><circle cx="274.6" cy="823.9" r="4.39"/><circle cx="283.9" cy="823.9" r="4.40"/><circle cx="293.2" cy="823.9" r="4.40"/><circle cx="302.5" cy="823.9" r="4.40"/><circle cx="311.9" cy="823.9" r="4.40"/><circle cx="321.2" cy="823.9" r="4.40"/><circle cx="330.5" cy="823.9" r="4.41"/><circle cx="339.8" cy="823.9" r="4.42"/><circle cx="349.1" cy="823.9" r="4.44"/><circle cx="358.4" cy="823.9" r="4.47"/><circle cx="367.7" cy="823.9" r="4.50"/><circle cx="377.0" cy="823.9" r="4.53"/><circle cx="386.3" cy="823.9" r="4.56"/><circle cx="395.6" cy="823.9" r="4.58"/><circle cx="256.0" cy="833.2" r="4.25"/><circle cx="265.3" cy="833.2" r="4.32"/><circle cx="274.6" cy="833.2" r="4.37"/><circle cx="283.9" cy="833.2" r="4.40"/><circle cx="293.2" cy="833.2" r="4.40"/><circle cx="302.5" cy="833.2" r="4.41"/><circle cx="311.9" cy="833.2" r="4.40"/><circle cx="321.2" cy="833.2" r="4.40"/><circle cx="330.5" cy="833.2" r="4.39"/><circle cx="339.8" cy="833.2" r="4.39"/><circle cx="349.1" cy="833.2" r="4.40"/><circle cx="358.4" cy="833.2" r="4.42"/><circle cx="367.7" cy="833.2" r="4.45"/><circle cx="377.0" cy="833.2" r="4.49"/><circle cx="386.3" cy="833.2" r="4.52"/><circle cx="395.6" cy="833.2" r="4.55"/></g></svg>
